<mxfile host="app.diagrams.net" agent="Mozilla/5.0 (Windows NT 10.0; Win64; x64) AppleWebKit/537.36 (KHTML, like Gecko) Chrome/132.0.0.0 Safari/537.36" version="26.0.11" pages="3">
  <diagram name="Pagina-1" id="UbjS4Rhv1yW6UElOH7e-">
    <mxGraphModel dx="1728" dy="943" grid="1" gridSize="10" guides="1" tooltips="1" connect="1" arrows="1" fold="1" page="1" pageScale="1" pageWidth="1169" pageHeight="827" math="0" shadow="0">
      <root>
        <mxCell id="0" />
        <mxCell id="1" parent="0" />
        <mxCell id="gXgZ1JriPXSv0xRWjve1-1" value="pokemon" style="shape=table;startSize=30;container=1;collapsible=1;childLayout=tableLayout;fixedRows=1;rowLines=0;fontStyle=1;align=center;resizeLast=1;html=1;" vertex="1" parent="1">
          <mxGeometry x="860" y="500" width="180" height="150" as="geometry" />
        </mxCell>
        <mxCell id="gXgZ1JriPXSv0xRWjve1-2" value="" style="shape=tableRow;horizontal=0;startSize=0;swimlaneHead=0;swimlaneBody=0;fillColor=none;collapsible=0;dropTarget=0;points=[[0,0.5],[1,0.5]];portConstraint=eastwest;top=0;left=0;right=0;bottom=1;" vertex="1" parent="gXgZ1JriPXSv0xRWjve1-1">
          <mxGeometry y="30" width="180" height="30" as="geometry" />
        </mxCell>
        <mxCell id="gXgZ1JriPXSv0xRWjve1-3" value="PK" style="shape=partialRectangle;connectable=0;fillColor=none;top=0;left=0;bottom=0;right=0;fontStyle=1;overflow=hidden;whiteSpace=wrap;html=1;" vertex="1" parent="gXgZ1JriPXSv0xRWjve1-2">
          <mxGeometry width="30" height="30" as="geometry">
            <mxRectangle width="30" height="30" as="alternateBounds" />
          </mxGeometry>
        </mxCell>
        <mxCell id="gXgZ1JriPXSv0xRWjve1-4" value="UniqueID" style="shape=partialRectangle;connectable=0;fillColor=none;top=0;left=0;bottom=0;right=0;align=left;spacingLeft=6;fontStyle=5;overflow=hidden;whiteSpace=wrap;html=1;" vertex="1" parent="gXgZ1JriPXSv0xRWjve1-2">
          <mxGeometry x="30" width="150" height="30" as="geometry">
            <mxRectangle width="150" height="30" as="alternateBounds" />
          </mxGeometry>
        </mxCell>
        <mxCell id="gXgZ1JriPXSv0xRWjve1-5" value="" style="shape=tableRow;horizontal=0;startSize=0;swimlaneHead=0;swimlaneBody=0;fillColor=none;collapsible=0;dropTarget=0;points=[[0,0.5],[1,0.5]];portConstraint=eastwest;top=0;left=0;right=0;bottom=0;" vertex="1" parent="gXgZ1JriPXSv0xRWjve1-1">
          <mxGeometry y="60" width="180" height="30" as="geometry" />
        </mxCell>
        <mxCell id="gXgZ1JriPXSv0xRWjve1-6" value="" style="shape=partialRectangle;connectable=0;fillColor=none;top=0;left=0;bottom=0;right=0;editable=1;overflow=hidden;whiteSpace=wrap;html=1;" vertex="1" parent="gXgZ1JriPXSv0xRWjve1-5">
          <mxGeometry width="30" height="30" as="geometry">
            <mxRectangle width="30" height="30" as="alternateBounds" />
          </mxGeometry>
        </mxCell>
        <mxCell id="gXgZ1JriPXSv0xRWjve1-7" value="Row 1" style="shape=partialRectangle;connectable=0;fillColor=none;top=0;left=0;bottom=0;right=0;align=left;spacingLeft=6;overflow=hidden;whiteSpace=wrap;html=1;" vertex="1" parent="gXgZ1JriPXSv0xRWjve1-5">
          <mxGeometry x="30" width="150" height="30" as="geometry">
            <mxRectangle width="150" height="30" as="alternateBounds" />
          </mxGeometry>
        </mxCell>
        <mxCell id="gXgZ1JriPXSv0xRWjve1-8" value="" style="shape=tableRow;horizontal=0;startSize=0;swimlaneHead=0;swimlaneBody=0;fillColor=none;collapsible=0;dropTarget=0;points=[[0,0.5],[1,0.5]];portConstraint=eastwest;top=0;left=0;right=0;bottom=0;" vertex="1" parent="gXgZ1JriPXSv0xRWjve1-1">
          <mxGeometry y="90" width="180" height="30" as="geometry" />
        </mxCell>
        <mxCell id="gXgZ1JriPXSv0xRWjve1-9" value="" style="shape=partialRectangle;connectable=0;fillColor=none;top=0;left=0;bottom=0;right=0;editable=1;overflow=hidden;whiteSpace=wrap;html=1;" vertex="1" parent="gXgZ1JriPXSv0xRWjve1-8">
          <mxGeometry width="30" height="30" as="geometry">
            <mxRectangle width="30" height="30" as="alternateBounds" />
          </mxGeometry>
        </mxCell>
        <mxCell id="gXgZ1JriPXSv0xRWjve1-10" value="Row 2" style="shape=partialRectangle;connectable=0;fillColor=none;top=0;left=0;bottom=0;right=0;align=left;spacingLeft=6;overflow=hidden;whiteSpace=wrap;html=1;" vertex="1" parent="gXgZ1JriPXSv0xRWjve1-8">
          <mxGeometry x="30" width="150" height="30" as="geometry">
            <mxRectangle width="150" height="30" as="alternateBounds" />
          </mxGeometry>
        </mxCell>
        <mxCell id="gXgZ1JriPXSv0xRWjve1-11" value="" style="shape=tableRow;horizontal=0;startSize=0;swimlaneHead=0;swimlaneBody=0;fillColor=none;collapsible=0;dropTarget=0;points=[[0,0.5],[1,0.5]];portConstraint=eastwest;top=0;left=0;right=0;bottom=0;" vertex="1" parent="gXgZ1JriPXSv0xRWjve1-1">
          <mxGeometry y="120" width="180" height="30" as="geometry" />
        </mxCell>
        <mxCell id="gXgZ1JriPXSv0xRWjve1-12" value="" style="shape=partialRectangle;connectable=0;fillColor=none;top=0;left=0;bottom=0;right=0;editable=1;overflow=hidden;whiteSpace=wrap;html=1;" vertex="1" parent="gXgZ1JriPXSv0xRWjve1-11">
          <mxGeometry width="30" height="30" as="geometry">
            <mxRectangle width="30" height="30" as="alternateBounds" />
          </mxGeometry>
        </mxCell>
        <mxCell id="gXgZ1JriPXSv0xRWjve1-13" value="Row 3" style="shape=partialRectangle;connectable=0;fillColor=none;top=0;left=0;bottom=0;right=0;align=left;spacingLeft=6;overflow=hidden;whiteSpace=wrap;html=1;" vertex="1" parent="gXgZ1JriPXSv0xRWjve1-11">
          <mxGeometry x="30" width="150" height="30" as="geometry">
            <mxRectangle width="150" height="30" as="alternateBounds" />
          </mxGeometry>
        </mxCell>
        <mxCell id="gXgZ1JriPXSv0xRWjve1-14" value="pokemon_tipi" style="shape=table;startSize=30;container=1;collapsible=1;childLayout=tableLayout;fixedRows=1;rowLines=0;fontStyle=1;align=center;resizeLast=1;html=1;" vertex="1" parent="1">
          <mxGeometry x="760" y="90" width="180" height="150" as="geometry" />
        </mxCell>
        <mxCell id="gXgZ1JriPXSv0xRWjve1-15" value="" style="shape=tableRow;horizontal=0;startSize=0;swimlaneHead=0;swimlaneBody=0;fillColor=none;collapsible=0;dropTarget=0;points=[[0,0.5],[1,0.5]];portConstraint=eastwest;top=0;left=0;right=0;bottom=1;" vertex="1" parent="gXgZ1JriPXSv0xRWjve1-14">
          <mxGeometry y="30" width="180" height="30" as="geometry" />
        </mxCell>
        <mxCell id="gXgZ1JriPXSv0xRWjve1-16" value="PK" style="shape=partialRectangle;connectable=0;fillColor=none;top=0;left=0;bottom=0;right=0;fontStyle=1;overflow=hidden;whiteSpace=wrap;html=1;" vertex="1" parent="gXgZ1JriPXSv0xRWjve1-15">
          <mxGeometry width="30" height="30" as="geometry">
            <mxRectangle width="30" height="30" as="alternateBounds" />
          </mxGeometry>
        </mxCell>
        <mxCell id="gXgZ1JriPXSv0xRWjve1-17" value="UniqueID" style="shape=partialRectangle;connectable=0;fillColor=none;top=0;left=0;bottom=0;right=0;align=left;spacingLeft=6;fontStyle=5;overflow=hidden;whiteSpace=wrap;html=1;" vertex="1" parent="gXgZ1JriPXSv0xRWjve1-15">
          <mxGeometry x="30" width="150" height="30" as="geometry">
            <mxRectangle width="150" height="30" as="alternateBounds" />
          </mxGeometry>
        </mxCell>
        <mxCell id="gXgZ1JriPXSv0xRWjve1-18" value="" style="shape=tableRow;horizontal=0;startSize=0;swimlaneHead=0;swimlaneBody=0;fillColor=none;collapsible=0;dropTarget=0;points=[[0,0.5],[1,0.5]];portConstraint=eastwest;top=0;left=0;right=0;bottom=0;" vertex="1" parent="gXgZ1JriPXSv0xRWjve1-14">
          <mxGeometry y="60" width="180" height="30" as="geometry" />
        </mxCell>
        <mxCell id="gXgZ1JriPXSv0xRWjve1-19" value="" style="shape=partialRectangle;connectable=0;fillColor=none;top=0;left=0;bottom=0;right=0;editable=1;overflow=hidden;whiteSpace=wrap;html=1;" vertex="1" parent="gXgZ1JriPXSv0xRWjve1-18">
          <mxGeometry width="30" height="30" as="geometry">
            <mxRectangle width="30" height="30" as="alternateBounds" />
          </mxGeometry>
        </mxCell>
        <mxCell id="gXgZ1JriPXSv0xRWjve1-20" value="Row 1" style="shape=partialRectangle;connectable=0;fillColor=none;top=0;left=0;bottom=0;right=0;align=left;spacingLeft=6;overflow=hidden;whiteSpace=wrap;html=1;" vertex="1" parent="gXgZ1JriPXSv0xRWjve1-18">
          <mxGeometry x="30" width="150" height="30" as="geometry">
            <mxRectangle width="150" height="30" as="alternateBounds" />
          </mxGeometry>
        </mxCell>
        <mxCell id="gXgZ1JriPXSv0xRWjve1-21" value="" style="shape=tableRow;horizontal=0;startSize=0;swimlaneHead=0;swimlaneBody=0;fillColor=none;collapsible=0;dropTarget=0;points=[[0,0.5],[1,0.5]];portConstraint=eastwest;top=0;left=0;right=0;bottom=0;" vertex="1" parent="gXgZ1JriPXSv0xRWjve1-14">
          <mxGeometry y="90" width="180" height="30" as="geometry" />
        </mxCell>
        <mxCell id="gXgZ1JriPXSv0xRWjve1-22" value="" style="shape=partialRectangle;connectable=0;fillColor=none;top=0;left=0;bottom=0;right=0;editable=1;overflow=hidden;whiteSpace=wrap;html=1;" vertex="1" parent="gXgZ1JriPXSv0xRWjve1-21">
          <mxGeometry width="30" height="30" as="geometry">
            <mxRectangle width="30" height="30" as="alternateBounds" />
          </mxGeometry>
        </mxCell>
        <mxCell id="gXgZ1JriPXSv0xRWjve1-23" value="Row 2" style="shape=partialRectangle;connectable=0;fillColor=none;top=0;left=0;bottom=0;right=0;align=left;spacingLeft=6;overflow=hidden;whiteSpace=wrap;html=1;" vertex="1" parent="gXgZ1JriPXSv0xRWjve1-21">
          <mxGeometry x="30" width="150" height="30" as="geometry">
            <mxRectangle width="150" height="30" as="alternateBounds" />
          </mxGeometry>
        </mxCell>
        <mxCell id="gXgZ1JriPXSv0xRWjve1-24" value="" style="shape=tableRow;horizontal=0;startSize=0;swimlaneHead=0;swimlaneBody=0;fillColor=none;collapsible=0;dropTarget=0;points=[[0,0.5],[1,0.5]];portConstraint=eastwest;top=0;left=0;right=0;bottom=0;" vertex="1" parent="gXgZ1JriPXSv0xRWjve1-14">
          <mxGeometry y="120" width="180" height="30" as="geometry" />
        </mxCell>
        <mxCell id="gXgZ1JriPXSv0xRWjve1-25" value="" style="shape=partialRectangle;connectable=0;fillColor=none;top=0;left=0;bottom=0;right=0;editable=1;overflow=hidden;whiteSpace=wrap;html=1;" vertex="1" parent="gXgZ1JriPXSv0xRWjve1-24">
          <mxGeometry width="30" height="30" as="geometry">
            <mxRectangle width="30" height="30" as="alternateBounds" />
          </mxGeometry>
        </mxCell>
        <mxCell id="gXgZ1JriPXSv0xRWjve1-26" value="Row 3" style="shape=partialRectangle;connectable=0;fillColor=none;top=0;left=0;bottom=0;right=0;align=left;spacingLeft=6;overflow=hidden;whiteSpace=wrap;html=1;" vertex="1" parent="gXgZ1JriPXSv0xRWjve1-24">
          <mxGeometry x="30" width="150" height="30" as="geometry">
            <mxRectangle width="150" height="30" as="alternateBounds" />
          </mxGeometry>
        </mxCell>
        <mxCell id="gXgZ1JriPXSv0xRWjve1-28" value="&lt;pre style=&quot;box-sizing: border-box; font-family: var(--fontStack-monospace, ui-monospace, SFMono-Regular, SF Mono, Menlo, Consolas, Liberation Mono, monospace); font-size: 13.6px; margin-top: 0px; margin-bottom: 0px; overflow-wrap: normal; padding: var(--base-size-16); overflow: auto; line-height: 1.45; color: rgb(31, 35, 40); background-color: rgb(246, 248, 250); border-radius: 6px; word-break: normal; min-height: 52px; font-style: normal; font-variant-ligatures: normal; font-variant-caps: normal; font-weight: 400; letter-spacing: normal; orphans: 2; text-align: start; text-indent: 0px; text-transform: none; widows: 2; word-spacing: 0px; -webkit-text-stroke-width: 0px; text-decoration-thickness: initial; text-decoration-style: initial; text-decoration-color: initial;&quot;&gt;&lt;span class=&quot;pl-k&quot; style=&quot;box-sizing: border-box; color: var(--color-prettylights-syntax-keyword);&quot;&gt;SELECT&lt;span style=&quot;background-color: light-dark(rgb(246, 248, 250), rgb(23, 25, 27)); color: light-dark(rgb(31, 35, 40), rgb(205, 208, 212)); font-family: var(--fontStack-monospace, ui-monospace, SFMono-Regular, SF Mono, Menlo, Consolas, Liberation Mono, monospace); font-size: 13.6px; white-space: normal;&quot;&gt;&amp;nbsp;&lt;/span&gt;*&lt;/span&gt;&lt;br&gt;&lt;span class=&quot;pl-k&quot; style=&quot;box-sizing: border-box; color: var(--color-prettylights-syntax-keyword);&quot;&gt;FROM&lt;/span&gt; studenti&lt;br&gt;&lt;span class=&quot;pl-k&quot; style=&quot;box-sizing: border-box; color: var(--color-prettylights-syntax-keyword);&quot;&gt;ORDER BY&lt;/span&gt; cognome&lt;br&gt;&lt;span class=&quot;pl-k&quot; style=&quot;box-sizing: border-box; color: var(--color-prettylights-syntax-keyword);&quot;&gt;LIMIT&lt;/span&gt; &lt;span class=&quot;pl-c1&quot; style=&quot;box-sizing: border-box; color: var(--color-prettylights-syntax-constant);&quot;&gt;10&lt;/span&gt;;&lt;/pre&gt;" style="text;whiteSpace=wrap;html=1;" vertex="1" parent="1">
          <mxGeometry x="240" y="360" width="150" height="100" as="geometry" />
        </mxCell>
        <mxCell id="gXgZ1JriPXSv0xRWjve1-32" value="" style="edgeStyle=orthogonalEdgeStyle;rounded=0;orthogonalLoop=1;jettySize=auto;html=1;" edge="1" parent="1" source="gXgZ1JriPXSv0xRWjve1-29" target="gXgZ1JriPXSv0xRWjve1-31">
          <mxGeometry relative="1" as="geometry" />
        </mxCell>
        <mxCell id="gXgZ1JriPXSv0xRWjve1-29" value="&lt;pre style=&quot;forced-color-adjust: none; font-style: normal; font-variant-ligatures: normal; font-variant-caps: normal; font-weight: 400; letter-spacing: normal; orphans: 2; text-indent: 0px; text-transform: none; widows: 2; word-spacing: 0px; -webkit-text-stroke-width: 0px; text-decoration-thickness: initial; text-decoration-style: initial; text-decoration-color: initial; box-sizing: border-box; font-family: var(--fontStack-monospace, ui-monospace, SFMono-Regular, SF Mono, Menlo, Consolas, Liberation Mono, monospace); font-size: 13.6px; margin-top: 0px; margin-bottom: 0px; overflow-wrap: normal; padding: var(--base-size-16); overflow: auto; line-height: 1.45; color: rgb(31, 35, 40); border-radius: 6px; word-break: normal; min-height: 52px;&quot;&gt;&lt;span&gt;SELECT&lt;/span&gt;&lt;/pre&gt;" style="text;whiteSpace=wrap;html=1;fillColor=#fff2cc;strokeColor=#d6b656;align=center;" vertex="1" parent="1">
          <mxGeometry x="560" y="340" width="100" height="30" as="geometry" />
        </mxCell>
        <mxCell id="gXgZ1JriPXSv0xRWjve1-30" value="UPDATE" style="text;whiteSpace=wrap;html=1;fillColor=#fff2cc;strokeColor=#d6b656;align=center;" vertex="1" parent="1">
          <mxGeometry x="680" y="340" width="100" height="30" as="geometry" />
        </mxCell>
        <mxCell id="gXgZ1JriPXSv0xRWjve1-34" value="" style="edgeStyle=orthogonalEdgeStyle;rounded=0;orthogonalLoop=1;jettySize=auto;html=1;" edge="1" parent="1" source="gXgZ1JriPXSv0xRWjve1-31" target="gXgZ1JriPXSv0xRWjve1-33">
          <mxGeometry relative="1" as="geometry" />
        </mxCell>
        <mxCell id="gXgZ1JriPXSv0xRWjve1-31" value="FROM" style="text;whiteSpace=wrap;html=1;fillColor=#fff2cc;strokeColor=#d6b656;align=center;" vertex="1" parent="1">
          <mxGeometry x="560" y="410" width="100" height="30" as="geometry" />
        </mxCell>
        <mxCell id="gXgZ1JriPXSv0xRWjve1-36" value="" style="edgeStyle=orthogonalEdgeStyle;rounded=0;orthogonalLoop=1;jettySize=auto;html=1;" edge="1" parent="1" target="gXgZ1JriPXSv0xRWjve1-35">
          <mxGeometry relative="1" as="geometry">
            <mxPoint x="610" y="590" as="sourcePoint" />
          </mxGeometry>
        </mxCell>
        <mxCell id="gXgZ1JriPXSv0xRWjve1-42" value="" style="edgeStyle=orthogonalEdgeStyle;rounded=0;orthogonalLoop=1;jettySize=auto;html=1;" edge="1" parent="1" source="gXgZ1JriPXSv0xRWjve1-33" target="gXgZ1JriPXSv0xRWjve1-41">
          <mxGeometry relative="1" as="geometry" />
        </mxCell>
        <mxCell id="gXgZ1JriPXSv0xRWjve1-33" value="WHERE" style="text;whiteSpace=wrap;html=1;fillColor=#fff2cc;strokeColor=#d6b656;align=center;" vertex="1" parent="1">
          <mxGeometry x="560" y="480" width="100" height="30" as="geometry" />
        </mxCell>
        <mxCell id="gXgZ1JriPXSv0xRWjve1-38" value="" style="edgeStyle=orthogonalEdgeStyle;rounded=0;orthogonalLoop=1;jettySize=auto;html=1;" edge="1" parent="1" source="gXgZ1JriPXSv0xRWjve1-35" target="gXgZ1JriPXSv0xRWjve1-37">
          <mxGeometry relative="1" as="geometry" />
        </mxCell>
        <mxCell id="gXgZ1JriPXSv0xRWjve1-35" value="ORDER BY" style="text;whiteSpace=wrap;html=1;fillColor=#fff2cc;strokeColor=#d6b656;align=center;" vertex="1" parent="1">
          <mxGeometry x="560" y="630" width="100" height="30" as="geometry" />
        </mxCell>
        <mxCell id="gXgZ1JriPXSv0xRWjve1-37" value="LIMIT" style="text;whiteSpace=wrap;html=1;fillColor=#fff2cc;strokeColor=#d6b656;align=center;" vertex="1" parent="1">
          <mxGeometry x="560" y="710" width="100" height="30" as="geometry" />
        </mxCell>
        <mxCell id="gXgZ1JriPXSv0xRWjve1-39" value="DELETE" style="text;whiteSpace=wrap;html=1;fillColor=#fff2cc;strokeColor=#d6b656;align=center;" vertex="1" parent="1">
          <mxGeometry x="800" y="340" width="100" height="30" as="geometry" />
        </mxCell>
        <mxCell id="gXgZ1JriPXSv0xRWjve1-40" value="DQL" style="text;whiteSpace=wrap;html=1;fillColor=#dae8fc;strokeColor=#6c8ebf;align=center;" vertex="1" parent="1">
          <mxGeometry x="560" y="290" width="100" height="30" as="geometry" />
        </mxCell>
        <mxCell id="gXgZ1JriPXSv0xRWjve1-41" value="GROUP BY" style="text;whiteSpace=wrap;html=1;fillColor=#fff2cc;strokeColor=#d6b656;align=center;" vertex="1" parent="1">
          <mxGeometry x="560" y="560" width="100" height="30" as="geometry" />
        </mxCell>
      </root>
    </mxGraphModel>
  </diagram>
  <diagram id="5ZnpBAVseCq9okO-6_wh" name="Pagina-2">
    <mxGraphModel dx="3457" dy="1887" grid="1" gridSize="10" guides="1" tooltips="1" connect="1" arrows="1" fold="1" page="1" pageScale="1" pageWidth="1169" pageHeight="827" math="0" shadow="0">
      <root>
        <mxCell id="0" />
        <mxCell id="1" parent="0" />
        <mxCell id="7FWKFU-9gDORKJ7qgrBi-1" value="esercitazioni" style="shape=cylinder3;whiteSpace=wrap;html=1;boundedLbl=1;backgroundOutline=1;size=15;" vertex="1" parent="1">
          <mxGeometry x="780" y="40" width="82" height="120" as="geometry" />
        </mxCell>
        <mxCell id="7FWKFU-9gDORKJ7qgrBi-19" style="edgeStyle=orthogonalEdgeStyle;rounded=0;orthogonalLoop=1;jettySize=auto;html=1;exitX=1;exitY=1;exitDx=0;exitDy=0;" edge="1" parent="1" source="7FWKFU-9gDORKJ7qgrBi-2" target="7FWKFU-9gDORKJ7qgrBi-1">
          <mxGeometry relative="1" as="geometry" />
        </mxCell>
        <mxCell id="7FWKFU-9gDORKJ7qgrBi-2" value="Mysql80" style="image;aspect=fixed;perimeter=ellipsePerimeter;html=1;align=center;shadow=0;dashed=0;spacingTop=3;image=img/lib/active_directory/generic_server.svg;" vertex="1" parent="1">
          <mxGeometry x="100" y="30" width="61.6" height="110" as="geometry" />
        </mxCell>
        <mxCell id="7FWKFU-9gDORKJ7qgrBi-4" style="edgeStyle=orthogonalEdgeStyle;rounded=0;orthogonalLoop=1;jettySize=auto;html=1;exitX=0;exitY=0.5;exitDx=0;exitDy=0;" edge="1" parent="1" source="7FWKFU-9gDORKJ7qgrBi-3" target="7FWKFU-9gDORKJ7qgrBi-2">
          <mxGeometry relative="1" as="geometry" />
        </mxCell>
        <mxCell id="7FWKFU-9gDORKJ7qgrBi-5" value="connessione" style="edgeLabel;html=1;align=center;verticalAlign=middle;resizable=0;points=[];" vertex="1" connectable="0" parent="7FWKFU-9gDORKJ7qgrBi-4">
          <mxGeometry x="-0.0482" y="2" relative="1" as="geometry">
            <mxPoint as="offset" />
          </mxGeometry>
        </mxCell>
        <mxCell id="7FWKFU-9gDORKJ7qgrBi-3" value="" style="image;aspect=fixed;perimeter=ellipsePerimeter;html=1;align=center;shadow=0;dashed=0;spacingTop=3;image=img/lib/active_directory/mac_client.svg;" vertex="1" parent="1">
          <mxGeometry x="300" y="60" width="47" height="50" as="geometry" />
        </mxCell>
        <mxCell id="7FWKFU-9gDORKJ7qgrBi-6" value="" style="sketch=0;outlineConnect=0;fontColor=#232F3E;gradientColor=none;fillColor=#C925D1;strokeColor=none;dashed=0;verticalLabelPosition=bottom;verticalAlign=top;align=center;html=1;fontSize=12;fontStyle=0;aspect=fixed;pointerEvents=1;shape=mxgraph.aws4.rds_mysql_instance;" vertex="1" parent="1">
          <mxGeometry x="50" y="20" width="48" height="48" as="geometry" />
        </mxCell>
        <mxCell id="7FWKFU-9gDORKJ7qgrBi-9" value="" style="edgeStyle=orthogonalEdgeStyle;rounded=0;orthogonalLoop=1;jettySize=auto;html=1;" edge="1" parent="1" source="7FWKFU-9gDORKJ7qgrBi-7" target="7FWKFU-9gDORKJ7qgrBi-8">
          <mxGeometry relative="1" as="geometry" />
        </mxCell>
        <mxCell id="7FWKFU-9gDORKJ7qgrBi-7" value="DCL" style="text;strokeColor=#6c8ebf;fillColor=#dae8fc;html=1;fontSize=24;fontStyle=1;verticalAlign=middle;align=center;" vertex="1" parent="1">
          <mxGeometry x="70" y="178" width="110" height="40" as="geometry" />
        </mxCell>
        <mxCell id="7FWKFU-9gDORKJ7qgrBi-8" value="CREATE" style="text;strokeColor=#6c8ebf;fillColor=#dae8fc;html=1;fontSize=24;fontStyle=1;verticalAlign=middle;align=center;" vertex="1" parent="1">
          <mxGeometry x="290" y="130" width="100" height="40" as="geometry" />
        </mxCell>
        <mxCell id="7FWKFU-9gDORKJ7qgrBi-10" value="GRANT" style="text;strokeColor=#6c8ebf;fillColor=#dae8fc;html=1;fontSize=24;fontStyle=1;verticalAlign=middle;align=center;" vertex="1" parent="1">
          <mxGeometry x="290" y="190" width="100" height="40" as="geometry" />
        </mxCell>
        <mxCell id="7FWKFU-9gDORKJ7qgrBi-15" style="edgeStyle=orthogonalEdgeStyle;rounded=0;orthogonalLoop=1;jettySize=auto;html=1;exitX=0.5;exitY=0;exitDx=0;exitDy=0;exitPerimeter=0;" edge="1" parent="1" source="7FWKFU-9gDORKJ7qgrBi-13" target="7FWKFU-9gDORKJ7qgrBi-2">
          <mxGeometry relative="1" as="geometry">
            <mxPoint x="270" y="40" as="targetPoint" />
            <Array as="points">
              <mxPoint x="410" y="9" />
              <mxPoint x="131" y="9" />
            </Array>
          </mxGeometry>
        </mxCell>
        <mxCell id="7FWKFU-9gDORKJ7qgrBi-13" value="root" style="shape=umlActor;verticalLabelPosition=bottom;verticalAlign=top;html=1;outlineConnect=0;" vertex="1" parent="1">
          <mxGeometry x="400" y="29" width="20" height="30" as="geometry" />
        </mxCell>
        <mxCell id="7FWKFU-9gDORKJ7qgrBi-18" style="edgeStyle=orthogonalEdgeStyle;rounded=0;orthogonalLoop=1;jettySize=auto;html=1;exitX=0.5;exitY=0.5;exitDx=0;exitDy=0;exitPerimeter=0;" edge="1" parent="1" source="7FWKFU-9gDORKJ7qgrBi-14" target="7FWKFU-9gDORKJ7qgrBi-2">
          <mxGeometry relative="1" as="geometry">
            <Array as="points">
              <mxPoint x="500" y="110" />
              <mxPoint x="201" y="110" />
              <mxPoint x="201" y="120" />
            </Array>
          </mxGeometry>
        </mxCell>
        <mxCell id="7FWKFU-9gDORKJ7qgrBi-14" value="ITS_2025" style="shape=umlActor;verticalLabelPosition=bottom;verticalAlign=top;html=1;outlineConnect=0;" vertex="1" parent="1">
          <mxGeometry x="490" y="19" width="20" height="40" as="geometry" />
        </mxCell>
        <mxCell id="7FWKFU-9gDORKJ7qgrBi-77" style="edgeStyle=orthogonalEdgeStyle;rounded=0;orthogonalLoop=1;jettySize=auto;html=1;exitX=1;exitY=0.5;exitDx=0;exitDy=0;" edge="1" parent="1" source="7FWKFU-9gDORKJ7qgrBi-20" target="7FWKFU-9gDORKJ7qgrBi-21">
          <mxGeometry relative="1" as="geometry" />
        </mxCell>
        <mxCell id="7FWKFU-9gDORKJ7qgrBi-20" value="DDL" style="text;strokeColor=#b85450;fillColor=#f8cecc;html=1;fontSize=24;fontStyle=1;verticalAlign=middle;align=center;" vertex="1" parent="1">
          <mxGeometry x="90" y="300" width="110" height="40" as="geometry" />
        </mxCell>
        <mxCell id="7FWKFU-9gDORKJ7qgrBi-23" value="" style="edgeStyle=orthogonalEdgeStyle;rounded=0;orthogonalLoop=1;jettySize=auto;html=1;" edge="1" parent="1" source="7FWKFU-9gDORKJ7qgrBi-21" target="7FWKFU-9gDORKJ7qgrBi-22">
          <mxGeometry relative="1" as="geometry" />
        </mxCell>
        <mxCell id="7FWKFU-9gDORKJ7qgrBi-26" style="edgeStyle=orthogonalEdgeStyle;rounded=0;orthogonalLoop=1;jettySize=auto;html=1;exitX=0;exitY=0.5;exitDx=0;exitDy=0;" edge="1" parent="1" source="7FWKFU-9gDORKJ7qgrBi-21" target="7FWKFU-9gDORKJ7qgrBi-1">
          <mxGeometry relative="1" as="geometry">
            <Array as="points">
              <mxPoint x="520" y="320" />
              <mxPoint x="520" y="250" />
              <mxPoint x="820" y="250" />
            </Array>
          </mxGeometry>
        </mxCell>
        <mxCell id="7FWKFU-9gDORKJ7qgrBi-41" style="edgeStyle=orthogonalEdgeStyle;rounded=0;orthogonalLoop=1;jettySize=auto;html=1;exitX=0;exitY=0.75;exitDx=0;exitDy=0;" edge="1" parent="1" source="7FWKFU-9gDORKJ7qgrBi-21" target="7FWKFU-9gDORKJ7qgrBi-27">
          <mxGeometry relative="1" as="geometry">
            <Array as="points">
              <mxPoint x="460" y="330" />
              <mxPoint x="460" y="430" />
              <mxPoint x="1045" y="430" />
            </Array>
          </mxGeometry>
        </mxCell>
        <mxCell id="7FWKFU-9gDORKJ7qgrBi-21" value="CREATE" style="text;strokeColor=#b85450;fillColor=#f8cecc;html=1;fontSize=24;fontStyle=1;verticalAlign=middle;align=center;" vertex="1" parent="1">
          <mxGeometry x="340" y="300" width="100" height="40" as="geometry" />
        </mxCell>
        <mxCell id="7FWKFU-9gDORKJ7qgrBi-25" value="" style="edgeStyle=orthogonalEdgeStyle;rounded=0;orthogonalLoop=1;jettySize=auto;html=1;" edge="1" parent="1" source="7FWKFU-9gDORKJ7qgrBi-22" target="7FWKFU-9gDORKJ7qgrBi-24">
          <mxGeometry relative="1" as="geometry" />
        </mxCell>
        <mxCell id="7FWKFU-9gDORKJ7qgrBi-22" value="ALTER" style="text;strokeColor=#b85450;fillColor=#f8cecc;html=1;fontSize=24;fontStyle=1;verticalAlign=middle;align=center;" vertex="1" parent="1">
          <mxGeometry x="340" y="350" width="100" height="40" as="geometry" />
        </mxCell>
        <mxCell id="7FWKFU-9gDORKJ7qgrBi-24" value="DROP" style="text;strokeColor=#b85450;fillColor=#f8cecc;html=1;fontSize=24;fontStyle=1;verticalAlign=middle;align=center;" vertex="1" parent="1">
          <mxGeometry x="340" y="400" width="100" height="40" as="geometry" />
        </mxCell>
        <mxCell id="7FWKFU-9gDORKJ7qgrBi-27" value="country-data" style="shape=table;startSize=30;container=1;collapsible=1;childLayout=tableLayout;fixedRows=1;rowLines=0;fontStyle=1;align=center;resizeLast=1;html=1;" vertex="1" parent="1">
          <mxGeometry x="980" y="68" width="130" height="150" as="geometry" />
        </mxCell>
        <mxCell id="7FWKFU-9gDORKJ7qgrBi-28" value="" style="shape=tableRow;horizontal=0;startSize=0;swimlaneHead=0;swimlaneBody=0;fillColor=none;collapsible=0;dropTarget=0;points=[[0,0.5],[1,0.5]];portConstraint=eastwest;top=0;left=0;right=0;bottom=1;" vertex="1" parent="7FWKFU-9gDORKJ7qgrBi-27">
          <mxGeometry y="30" width="130" height="30" as="geometry" />
        </mxCell>
        <mxCell id="7FWKFU-9gDORKJ7qgrBi-29" value="PK" style="shape=partialRectangle;connectable=0;fillColor=none;top=0;left=0;bottom=0;right=0;fontStyle=1;overflow=hidden;whiteSpace=wrap;html=1;" vertex="1" parent="7FWKFU-9gDORKJ7qgrBi-28">
          <mxGeometry width="30" height="30" as="geometry">
            <mxRectangle width="30" height="30" as="alternateBounds" />
          </mxGeometry>
        </mxCell>
        <mxCell id="7FWKFU-9gDORKJ7qgrBi-30" value="UniqueID" style="shape=partialRectangle;connectable=0;fillColor=none;top=0;left=0;bottom=0;right=0;align=left;spacingLeft=6;fontStyle=5;overflow=hidden;whiteSpace=wrap;html=1;" vertex="1" parent="7FWKFU-9gDORKJ7qgrBi-28">
          <mxGeometry x="30" width="100" height="30" as="geometry">
            <mxRectangle width="100" height="30" as="alternateBounds" />
          </mxGeometry>
        </mxCell>
        <mxCell id="7FWKFU-9gDORKJ7qgrBi-31" value="" style="shape=tableRow;horizontal=0;startSize=0;swimlaneHead=0;swimlaneBody=0;fillColor=none;collapsible=0;dropTarget=0;points=[[0,0.5],[1,0.5]];portConstraint=eastwest;top=0;left=0;right=0;bottom=0;" vertex="1" parent="7FWKFU-9gDORKJ7qgrBi-27">
          <mxGeometry y="60" width="130" height="30" as="geometry" />
        </mxCell>
        <mxCell id="7FWKFU-9gDORKJ7qgrBi-32" value="" style="shape=partialRectangle;connectable=0;fillColor=none;top=0;left=0;bottom=0;right=0;editable=1;overflow=hidden;whiteSpace=wrap;html=1;" vertex="1" parent="7FWKFU-9gDORKJ7qgrBi-31">
          <mxGeometry width="30" height="30" as="geometry">
            <mxRectangle width="30" height="30" as="alternateBounds" />
          </mxGeometry>
        </mxCell>
        <mxCell id="7FWKFU-9gDORKJ7qgrBi-33" value="Row 1" style="shape=partialRectangle;connectable=0;fillColor=none;top=0;left=0;bottom=0;right=0;align=left;spacingLeft=6;overflow=hidden;whiteSpace=wrap;html=1;" vertex="1" parent="7FWKFU-9gDORKJ7qgrBi-31">
          <mxGeometry x="30" width="100" height="30" as="geometry">
            <mxRectangle width="100" height="30" as="alternateBounds" />
          </mxGeometry>
        </mxCell>
        <mxCell id="7FWKFU-9gDORKJ7qgrBi-34" value="" style="shape=tableRow;horizontal=0;startSize=0;swimlaneHead=0;swimlaneBody=0;fillColor=none;collapsible=0;dropTarget=0;points=[[0,0.5],[1,0.5]];portConstraint=eastwest;top=0;left=0;right=0;bottom=0;" vertex="1" parent="7FWKFU-9gDORKJ7qgrBi-27">
          <mxGeometry y="90" width="130" height="30" as="geometry" />
        </mxCell>
        <mxCell id="7FWKFU-9gDORKJ7qgrBi-35" value="" style="shape=partialRectangle;connectable=0;fillColor=none;top=0;left=0;bottom=0;right=0;editable=1;overflow=hidden;whiteSpace=wrap;html=1;" vertex="1" parent="7FWKFU-9gDORKJ7qgrBi-34">
          <mxGeometry width="30" height="30" as="geometry">
            <mxRectangle width="30" height="30" as="alternateBounds" />
          </mxGeometry>
        </mxCell>
        <mxCell id="7FWKFU-9gDORKJ7qgrBi-36" value="Row 2" style="shape=partialRectangle;connectable=0;fillColor=none;top=0;left=0;bottom=0;right=0;align=left;spacingLeft=6;overflow=hidden;whiteSpace=wrap;html=1;" vertex="1" parent="7FWKFU-9gDORKJ7qgrBi-34">
          <mxGeometry x="30" width="100" height="30" as="geometry">
            <mxRectangle width="100" height="30" as="alternateBounds" />
          </mxGeometry>
        </mxCell>
        <mxCell id="7FWKFU-9gDORKJ7qgrBi-37" value="" style="shape=tableRow;horizontal=0;startSize=0;swimlaneHead=0;swimlaneBody=0;fillColor=none;collapsible=0;dropTarget=0;points=[[0,0.5],[1,0.5]];portConstraint=eastwest;top=0;left=0;right=0;bottom=0;" vertex="1" parent="7FWKFU-9gDORKJ7qgrBi-27">
          <mxGeometry y="120" width="130" height="30" as="geometry" />
        </mxCell>
        <mxCell id="7FWKFU-9gDORKJ7qgrBi-38" value="" style="shape=partialRectangle;connectable=0;fillColor=none;top=0;left=0;bottom=0;right=0;editable=1;overflow=hidden;whiteSpace=wrap;html=1;" vertex="1" parent="7FWKFU-9gDORKJ7qgrBi-37">
          <mxGeometry width="30" height="30" as="geometry">
            <mxRectangle width="30" height="30" as="alternateBounds" />
          </mxGeometry>
        </mxCell>
        <mxCell id="7FWKFU-9gDORKJ7qgrBi-39" value="Row 3" style="shape=partialRectangle;connectable=0;fillColor=none;top=0;left=0;bottom=0;right=0;align=left;spacingLeft=6;overflow=hidden;whiteSpace=wrap;html=1;" vertex="1" parent="7FWKFU-9gDORKJ7qgrBi-37">
          <mxGeometry x="30" width="100" height="30" as="geometry">
            <mxRectangle width="100" height="30" as="alternateBounds" />
          </mxGeometry>
        </mxCell>
        <mxCell id="7FWKFU-9gDORKJ7qgrBi-76" style="edgeStyle=orthogonalEdgeStyle;rounded=0;orthogonalLoop=1;jettySize=auto;html=1;exitX=1;exitY=0.5;exitDx=0;exitDy=0;entryX=0;entryY=0.5;entryDx=0;entryDy=0;startArrow=classic;startFill=1;" edge="1" parent="1" source="7FWKFU-9gDORKJ7qgrBi-42" target="7FWKFU-9gDORKJ7qgrBi-53">
          <mxGeometry relative="1" as="geometry" />
        </mxCell>
        <mxCell id="7FWKFU-9gDORKJ7qgrBi-42" value="DML" style="text;strokeColor=#82b366;fillColor=#d5e8d4;html=1;fontSize=24;fontStyle=1;verticalAlign=middle;align=center;" vertex="1" parent="1">
          <mxGeometry x="100" y="480" width="110" height="40" as="geometry" />
        </mxCell>
        <mxCell id="7FWKFU-9gDORKJ7qgrBi-55" value="" style="edgeStyle=orthogonalEdgeStyle;rounded=0;orthogonalLoop=1;jettySize=auto;html=1;" edge="1" parent="1" source="7FWKFU-9gDORKJ7qgrBi-43" target="7FWKFU-9gDORKJ7qgrBi-54">
          <mxGeometry relative="1" as="geometry" />
        </mxCell>
        <mxCell id="7FWKFU-9gDORKJ7qgrBi-43" value="INSERT" style="text;strokeColor=#82b366;fillColor=#d5e8d4;html=1;fontSize=24;fontStyle=1;verticalAlign=middle;align=center;" vertex="1" parent="1">
          <mxGeometry x="100" y="540" width="110" height="40" as="geometry" />
        </mxCell>
        <mxCell id="7FWKFU-9gDORKJ7qgrBi-57" value="" style="edgeStyle=orthogonalEdgeStyle;rounded=0;orthogonalLoop=1;jettySize=auto;html=1;" edge="1" parent="1" source="7FWKFU-9gDORKJ7qgrBi-45" target="7FWKFU-9gDORKJ7qgrBi-56">
          <mxGeometry relative="1" as="geometry" />
        </mxCell>
        <mxCell id="7FWKFU-9gDORKJ7qgrBi-45" value="SELECT" style="text;strokeColor=#82b366;fillColor=#d5e8d4;html=1;fontSize=24;fontStyle=1;verticalAlign=middle;align=center;" vertex="1" parent="1">
          <mxGeometry x="100" y="610" width="110" height="40" as="geometry" />
        </mxCell>
        <mxCell id="7FWKFU-9gDORKJ7qgrBi-61" value="" style="edgeStyle=orthogonalEdgeStyle;rounded=0;orthogonalLoop=1;jettySize=auto;html=1;" edge="1" parent="1" source="7FWKFU-9gDORKJ7qgrBi-48" target="7FWKFU-9gDORKJ7qgrBi-60">
          <mxGeometry relative="1" as="geometry" />
        </mxCell>
        <mxCell id="7FWKFU-9gDORKJ7qgrBi-48" value="UPDATE" style="text;strokeColor=#82b366;fillColor=#d5e8d4;html=1;fontSize=24;fontStyle=1;verticalAlign=middle;align=center;" vertex="1" parent="1">
          <mxGeometry x="100" y="680" width="110" height="40" as="geometry" />
        </mxCell>
        <mxCell id="7FWKFU-9gDORKJ7qgrBi-50" value="DELETE" style="text;strokeColor=#82b366;fillColor=#d5e8d4;html=1;fontSize=24;fontStyle=1;verticalAlign=middle;align=center;" vertex="1" parent="1">
          <mxGeometry x="100" y="750" width="110" height="40" as="geometry" />
        </mxCell>
        <mxCell id="7FWKFU-9gDORKJ7qgrBi-53" value="DQL" style="text;strokeColor=#9673a6;fillColor=#e1d5e7;html=1;fontSize=24;fontStyle=1;verticalAlign=middle;align=center;" vertex="1" parent="1">
          <mxGeometry x="372" y="480" width="110" height="40" as="geometry" />
        </mxCell>
        <mxCell id="7FWKFU-9gDORKJ7qgrBi-54" value="INTO" style="text;strokeColor=#82b366;fillColor=#d5e8d4;html=1;fontSize=24;fontStyle=1;verticalAlign=middle;align=center;" vertex="1" parent="1">
          <mxGeometry x="240" y="540" width="110" height="40" as="geometry" />
        </mxCell>
        <mxCell id="7FWKFU-9gDORKJ7qgrBi-63" value="" style="edgeStyle=orthogonalEdgeStyle;rounded=0;orthogonalLoop=1;jettySize=auto;html=1;" edge="1" parent="1">
          <mxGeometry relative="1" as="geometry">
            <mxPoint x="351" y="630.0344827586207" as="sourcePoint" />
            <mxPoint x="372.0344827586209" y="630.0431372549019" as="targetPoint" />
          </mxGeometry>
        </mxCell>
        <mxCell id="7FWKFU-9gDORKJ7qgrBi-56" value="FROM" style="text;strokeColor=#82b366;fillColor=#d5e8d4;html=1;fontSize=24;fontStyle=1;verticalAlign=middle;align=center;" vertex="1" parent="1">
          <mxGeometry x="240" y="610" width="110" height="40" as="geometry" />
        </mxCell>
        <mxCell id="7FWKFU-9gDORKJ7qgrBi-67" value="" style="edgeStyle=orthogonalEdgeStyle;rounded=0;orthogonalLoop=1;jettySize=auto;html=1;" edge="1" parent="1">
          <mxGeometry relative="1" as="geometry">
            <mxPoint x="351" y="770.0344827586207" as="sourcePoint" />
            <mxPoint x="372.0344827586209" y="770.0431372549019" as="targetPoint" />
          </mxGeometry>
        </mxCell>
        <mxCell id="7FWKFU-9gDORKJ7qgrBi-58" value="FROM" style="text;strokeColor=#82b366;fillColor=#d5e8d4;html=1;fontSize=24;fontStyle=1;verticalAlign=middle;align=center;" vertex="1" parent="1">
          <mxGeometry x="240" y="750" width="110" height="40" as="geometry" />
        </mxCell>
        <mxCell id="7FWKFU-9gDORKJ7qgrBi-59" value="" style="edgeStyle=orthogonalEdgeStyle;rounded=0;orthogonalLoop=1;jettySize=auto;html=1;" edge="1" target="7FWKFU-9gDORKJ7qgrBi-58" parent="1">
          <mxGeometry relative="1" as="geometry">
            <mxPoint x="210" y="770" as="sourcePoint" />
          </mxGeometry>
        </mxCell>
        <mxCell id="7FWKFU-9gDORKJ7qgrBi-65" value="" style="edgeStyle=orthogonalEdgeStyle;rounded=0;orthogonalLoop=1;jettySize=auto;html=1;" edge="1" parent="1">
          <mxGeometry relative="1" as="geometry">
            <mxPoint x="351" y="700.0344827586207" as="sourcePoint" />
            <mxPoint x="372.0344827586209" y="700.0431372549019" as="targetPoint" />
          </mxGeometry>
        </mxCell>
        <mxCell id="7FWKFU-9gDORKJ7qgrBi-60" value="SET" style="text;strokeColor=#82b366;fillColor=#d5e8d4;html=1;fontSize=24;fontStyle=1;verticalAlign=middle;align=center;" vertex="1" parent="1">
          <mxGeometry x="240" y="680" width="110" height="40" as="geometry" />
        </mxCell>
        <mxCell id="7FWKFU-9gDORKJ7qgrBi-69" value="" style="edgeStyle=orthogonalEdgeStyle;rounded=0;orthogonalLoop=1;jettySize=auto;html=1;" edge="1" parent="1" source="7FWKFU-9gDORKJ7qgrBi-62" target="7FWKFU-9gDORKJ7qgrBi-68">
          <mxGeometry relative="1" as="geometry" />
        </mxCell>
        <mxCell id="7FWKFU-9gDORKJ7qgrBi-62" value="WHERE" style="text;strokeColor=#9673a6;fillColor=#e1d5e7;html=1;fontSize=24;fontStyle=1;verticalAlign=middle;align=center;" vertex="1" parent="1">
          <mxGeometry x="372" y="610" width="110" height="40" as="geometry" />
        </mxCell>
        <mxCell id="7FWKFU-9gDORKJ7qgrBi-64" value="WHERE" style="text;strokeColor=#82b366;fillColor=#d5e8d4;html=1;fontSize=24;fontStyle=1;verticalAlign=middle;align=center;" vertex="1" parent="1">
          <mxGeometry x="372" y="680" width="110" height="40" as="geometry" />
        </mxCell>
        <mxCell id="7FWKFU-9gDORKJ7qgrBi-66" value="WHERE" style="text;strokeColor=#82b366;fillColor=#d5e8d4;html=1;fontSize=24;fontStyle=1;verticalAlign=middle;align=center;" vertex="1" parent="1">
          <mxGeometry x="372" y="750" width="110" height="40" as="geometry" />
        </mxCell>
        <mxCell id="7FWKFU-9gDORKJ7qgrBi-71" value="" style="edgeStyle=orthogonalEdgeStyle;rounded=0;orthogonalLoop=1;jettySize=auto;html=1;" edge="1" parent="1" source="7FWKFU-9gDORKJ7qgrBi-68" target="7FWKFU-9gDORKJ7qgrBi-70">
          <mxGeometry relative="1" as="geometry" />
        </mxCell>
        <mxCell id="7FWKFU-9gDORKJ7qgrBi-68" value="GROUP BY" style="text;strokeColor=#9673a6;fillColor=#e1d5e7;html=1;fontSize=24;fontStyle=1;verticalAlign=middle;align=center;" vertex="1" parent="1">
          <mxGeometry x="500" y="610" width="140" height="40" as="geometry" />
        </mxCell>
        <mxCell id="7FWKFU-9gDORKJ7qgrBi-73" value="" style="edgeStyle=orthogonalEdgeStyle;rounded=0;orthogonalLoop=1;jettySize=auto;html=1;" edge="1" parent="1" source="7FWKFU-9gDORKJ7qgrBi-70" target="7FWKFU-9gDORKJ7qgrBi-72">
          <mxGeometry relative="1" as="geometry" />
        </mxCell>
        <mxCell id="7FWKFU-9gDORKJ7qgrBi-70" value="HAVING" style="text;strokeColor=#9673a6;fillColor=#e1d5e7;html=1;fontSize=24;fontStyle=1;verticalAlign=middle;align=center;" vertex="1" parent="1">
          <mxGeometry x="670" y="610" width="100" height="40" as="geometry" />
        </mxCell>
        <mxCell id="7FWKFU-9gDORKJ7qgrBi-75" value="" style="edgeStyle=orthogonalEdgeStyle;rounded=0;orthogonalLoop=1;jettySize=auto;html=1;" edge="1" parent="1" source="7FWKFU-9gDORKJ7qgrBi-72" target="7FWKFU-9gDORKJ7qgrBi-74">
          <mxGeometry relative="1" as="geometry" />
        </mxCell>
        <mxCell id="7FWKFU-9gDORKJ7qgrBi-72" value="ORDER BY" style="text;strokeColor=#9673a6;fillColor=#e1d5e7;html=1;fontSize=24;fontStyle=1;verticalAlign=middle;align=center;" vertex="1" parent="1">
          <mxGeometry x="800" y="610" width="130" height="40" as="geometry" />
        </mxCell>
        <mxCell id="7FWKFU-9gDORKJ7qgrBi-74" value="LIMIT" style="text;strokeColor=#9673a6;fillColor=#e1d5e7;html=1;fontSize=24;fontStyle=1;verticalAlign=middle;align=center;" vertex="1" parent="1">
          <mxGeometry x="960" y="610" width="120" height="40" as="geometry" />
        </mxCell>
      </root>
    </mxGraphModel>
  </diagram>
  <diagram id="hmLn4Io_BT5wPbpz81-n" name="libreria">
    <mxGraphModel dx="2157" dy="2193" grid="1" gridSize="10" guides="1" tooltips="1" connect="1" arrows="1" fold="1" page="1" pageScale="1" pageWidth="1169" pageHeight="827" math="0" shadow="0">
      <root>
        <mxCell id="0" />
        <mxCell id="1" parent="0" />
        <mxCell id="synUWKf-2iNve79TVzv9-1" value="" style="group;aspect=fixed;" vertex="1" connectable="0" parent="1">
          <mxGeometry x="526" y="110" width="494" height="444.6" as="geometry" />
        </mxCell>
        <mxCell id="Rgj9W0QIKtO3NvW4RfYq-1" value="Libro" style="shape=table;startSize=30;container=1;collapsible=1;childLayout=tableLayout;fixedRows=1;rowLines=0;fontStyle=1;align=center;resizeLast=1;html=1;" parent="synUWKf-2iNve79TVzv9-1" vertex="1">
          <mxGeometry width="177.83999999999992" height="180" as="geometry" />
        </mxCell>
        <mxCell id="Rgj9W0QIKtO3NvW4RfYq-2" value="" style="shape=tableRow;horizontal=0;startSize=0;swimlaneHead=0;swimlaneBody=0;fillColor=none;collapsible=0;dropTarget=0;points=[[0,0.5],[1,0.5]];portConstraint=eastwest;top=0;left=0;right=0;bottom=1;" parent="Rgj9W0QIKtO3NvW4RfYq-1" vertex="1">
          <mxGeometry y="30" width="177.83999999999992" height="30" as="geometry" />
        </mxCell>
        <mxCell id="Rgj9W0QIKtO3NvW4RfYq-3" value="PK" style="shape=partialRectangle;connectable=0;fillColor=none;top=0;left=0;bottom=0;right=0;fontStyle=1;overflow=hidden;whiteSpace=wrap;html=1;" parent="Rgj9W0QIKtO3NvW4RfYq-2" vertex="1">
          <mxGeometry width="30" height="30" as="geometry">
            <mxRectangle width="30" height="30" as="alternateBounds" />
          </mxGeometry>
        </mxCell>
        <mxCell id="Rgj9W0QIKtO3NvW4RfYq-4" value="id" style="shape=partialRectangle;connectable=0;fillColor=none;top=0;left=0;bottom=0;right=0;align=left;spacingLeft=6;fontStyle=5;overflow=hidden;whiteSpace=wrap;html=1;" parent="Rgj9W0QIKtO3NvW4RfYq-2" vertex="1">
          <mxGeometry x="30" width="147.83999999999992" height="30" as="geometry">
            <mxRectangle width="147.83999999999992" height="30" as="alternateBounds" />
          </mxGeometry>
        </mxCell>
        <mxCell id="Rgj9W0QIKtO3NvW4RfYq-5" value="" style="shape=tableRow;horizontal=0;startSize=0;swimlaneHead=0;swimlaneBody=0;fillColor=none;collapsible=0;dropTarget=0;points=[[0,0.5],[1,0.5]];portConstraint=eastwest;top=0;left=0;right=0;bottom=0;" parent="Rgj9W0QIKtO3NvW4RfYq-1" vertex="1">
          <mxGeometry y="60" width="177.83999999999992" height="30" as="geometry" />
        </mxCell>
        <mxCell id="Rgj9W0QIKtO3NvW4RfYq-6" value="" style="shape=partialRectangle;connectable=0;fillColor=none;top=0;left=0;bottom=0;right=0;editable=1;overflow=hidden;whiteSpace=wrap;html=1;" parent="Rgj9W0QIKtO3NvW4RfYq-5" vertex="1">
          <mxGeometry width="30" height="30" as="geometry">
            <mxRectangle width="30" height="30" as="alternateBounds" />
          </mxGeometry>
        </mxCell>
        <mxCell id="Rgj9W0QIKtO3NvW4RfYq-7" value="titolo" style="shape=partialRectangle;connectable=0;fillColor=none;top=0;left=0;bottom=0;right=0;align=left;spacingLeft=6;overflow=hidden;whiteSpace=wrap;html=1;" parent="Rgj9W0QIKtO3NvW4RfYq-5" vertex="1">
          <mxGeometry x="30" width="147.83999999999992" height="30" as="geometry">
            <mxRectangle width="147.83999999999992" height="30" as="alternateBounds" />
          </mxGeometry>
        </mxCell>
        <mxCell id="Rgj9W0QIKtO3NvW4RfYq-8" value="" style="shape=tableRow;horizontal=0;startSize=0;swimlaneHead=0;swimlaneBody=0;fillColor=none;collapsible=0;dropTarget=0;points=[[0,0.5],[1,0.5]];portConstraint=eastwest;top=0;left=0;right=0;bottom=0;" parent="Rgj9W0QIKtO3NvW4RfYq-1" vertex="1">
          <mxGeometry y="90" width="177.83999999999992" height="30" as="geometry" />
        </mxCell>
        <mxCell id="Rgj9W0QIKtO3NvW4RfYq-9" value="" style="shape=partialRectangle;connectable=0;fillColor=none;top=0;left=0;bottom=0;right=0;editable=1;overflow=hidden;whiteSpace=wrap;html=1;" parent="Rgj9W0QIKtO3NvW4RfYq-8" vertex="1">
          <mxGeometry width="30" height="30" as="geometry">
            <mxRectangle width="30" height="30" as="alternateBounds" />
          </mxGeometry>
        </mxCell>
        <mxCell id="Rgj9W0QIKtO3NvW4RfYq-10" value="prezzo" style="shape=partialRectangle;connectable=0;fillColor=none;top=0;left=0;bottom=0;right=0;align=left;spacingLeft=6;overflow=hidden;whiteSpace=wrap;html=1;" parent="Rgj9W0QIKtO3NvW4RfYq-8" vertex="1">
          <mxGeometry x="30" width="147.83999999999992" height="30" as="geometry">
            <mxRectangle width="147.83999999999992" height="30" as="alternateBounds" />
          </mxGeometry>
        </mxCell>
        <mxCell id="Rgj9W0QIKtO3NvW4RfYq-11" value="" style="shape=tableRow;horizontal=0;startSize=0;swimlaneHead=0;swimlaneBody=0;fillColor=none;collapsible=0;dropTarget=0;points=[[0,0.5],[1,0.5]];portConstraint=eastwest;top=0;left=0;right=0;bottom=0;" parent="Rgj9W0QIKtO3NvW4RfYq-1" vertex="1">
          <mxGeometry y="120" width="177.83999999999992" height="30" as="geometry" />
        </mxCell>
        <mxCell id="Rgj9W0QIKtO3NvW4RfYq-12" value="" style="shape=partialRectangle;connectable=0;fillColor=none;top=0;left=0;bottom=0;right=0;editable=1;overflow=hidden;whiteSpace=wrap;html=1;" parent="Rgj9W0QIKtO3NvW4RfYq-11" vertex="1">
          <mxGeometry width="30" height="30" as="geometry">
            <mxRectangle width="30" height="30" as="alternateBounds" />
          </mxGeometry>
        </mxCell>
        <mxCell id="Rgj9W0QIKtO3NvW4RfYq-13" value="pagine" style="shape=partialRectangle;connectable=0;fillColor=none;top=0;left=0;bottom=0;right=0;align=left;spacingLeft=6;overflow=hidden;whiteSpace=wrap;html=1;" parent="Rgj9W0QIKtO3NvW4RfYq-11" vertex="1">
          <mxGeometry x="30" width="147.83999999999992" height="30" as="geometry">
            <mxRectangle width="147.83999999999992" height="30" as="alternateBounds" />
          </mxGeometry>
        </mxCell>
        <mxCell id="Rgj9W0QIKtO3NvW4RfYq-40" style="shape=tableRow;horizontal=0;startSize=0;swimlaneHead=0;swimlaneBody=0;fillColor=none;collapsible=0;dropTarget=0;points=[[0,0.5],[1,0.5]];portConstraint=eastwest;top=0;left=0;right=0;bottom=0;" parent="Rgj9W0QIKtO3NvW4RfYq-1" vertex="1">
          <mxGeometry y="150" width="177.83999999999992" height="30" as="geometry" />
        </mxCell>
        <mxCell id="Rgj9W0QIKtO3NvW4RfYq-41" value="FK" style="shape=partialRectangle;connectable=0;fillColor=none;top=0;left=0;bottom=0;right=0;editable=1;overflow=hidden;whiteSpace=wrap;html=1;" parent="Rgj9W0QIKtO3NvW4RfYq-40" vertex="1">
          <mxGeometry width="30" height="30" as="geometry">
            <mxRectangle width="30" height="30" as="alternateBounds" />
          </mxGeometry>
        </mxCell>
        <mxCell id="Rgj9W0QIKtO3NvW4RfYq-42" value="editore_id" style="shape=partialRectangle;connectable=0;fillColor=none;top=0;left=0;bottom=0;right=0;align=left;spacingLeft=6;overflow=hidden;whiteSpace=wrap;html=1;" parent="Rgj9W0QIKtO3NvW4RfYq-40" vertex="1">
          <mxGeometry x="30" width="147.83999999999992" height="30" as="geometry">
            <mxRectangle width="147.83999999999992" height="30" as="alternateBounds" />
          </mxGeometry>
        </mxCell>
        <mxCell id="Rgj9W0QIKtO3NvW4RfYq-14" value="Editore" style="shape=table;startSize=30;container=1;collapsible=1;childLayout=tableLayout;fixedRows=1;rowLines=0;fontStyle=1;align=center;resizeLast=1;html=1;" parent="synUWKf-2iNve79TVzv9-1" vertex="1">
          <mxGeometry x="316.16" y="9.879999999999999" width="177.83999999999992" height="120" as="geometry" />
        </mxCell>
        <mxCell id="Rgj9W0QIKtO3NvW4RfYq-15" value="" style="shape=tableRow;horizontal=0;startSize=0;swimlaneHead=0;swimlaneBody=0;fillColor=none;collapsible=0;dropTarget=0;points=[[0,0.5],[1,0.5]];portConstraint=eastwest;top=0;left=0;right=0;bottom=1;" parent="Rgj9W0QIKtO3NvW4RfYq-14" vertex="1">
          <mxGeometry y="30" width="177.83999999999992" height="30" as="geometry" />
        </mxCell>
        <mxCell id="Rgj9W0QIKtO3NvW4RfYq-16" value="PK" style="shape=partialRectangle;connectable=0;fillColor=none;top=0;left=0;bottom=0;right=0;fontStyle=1;overflow=hidden;whiteSpace=wrap;html=1;" parent="Rgj9W0QIKtO3NvW4RfYq-15" vertex="1">
          <mxGeometry width="30" height="30" as="geometry">
            <mxRectangle width="30" height="30" as="alternateBounds" />
          </mxGeometry>
        </mxCell>
        <mxCell id="Rgj9W0QIKtO3NvW4RfYq-17" value="id" style="shape=partialRectangle;connectable=0;fillColor=none;top=0;left=0;bottom=0;right=0;align=left;spacingLeft=6;fontStyle=5;overflow=hidden;whiteSpace=wrap;html=1;" parent="Rgj9W0QIKtO3NvW4RfYq-15" vertex="1">
          <mxGeometry x="30" width="147.83999999999992" height="30" as="geometry">
            <mxRectangle width="147.83999999999992" height="30" as="alternateBounds" />
          </mxGeometry>
        </mxCell>
        <mxCell id="Rgj9W0QIKtO3NvW4RfYq-18" value="" style="shape=tableRow;horizontal=0;startSize=0;swimlaneHead=0;swimlaneBody=0;fillColor=none;collapsible=0;dropTarget=0;points=[[0,0.5],[1,0.5]];portConstraint=eastwest;top=0;left=0;right=0;bottom=0;" parent="Rgj9W0QIKtO3NvW4RfYq-14" vertex="1">
          <mxGeometry y="60" width="177.83999999999992" height="30" as="geometry" />
        </mxCell>
        <mxCell id="Rgj9W0QIKtO3NvW4RfYq-19" value="" style="shape=partialRectangle;connectable=0;fillColor=none;top=0;left=0;bottom=0;right=0;editable=1;overflow=hidden;whiteSpace=wrap;html=1;" parent="Rgj9W0QIKtO3NvW4RfYq-18" vertex="1">
          <mxGeometry width="30" height="30" as="geometry">
            <mxRectangle width="30" height="30" as="alternateBounds" />
          </mxGeometry>
        </mxCell>
        <mxCell id="Rgj9W0QIKtO3NvW4RfYq-20" value="nome" style="shape=partialRectangle;connectable=0;fillColor=none;top=0;left=0;bottom=0;right=0;align=left;spacingLeft=6;overflow=hidden;whiteSpace=wrap;html=1;" parent="Rgj9W0QIKtO3NvW4RfYq-18" vertex="1">
          <mxGeometry x="30" width="147.83999999999992" height="30" as="geometry">
            <mxRectangle width="147.83999999999992" height="30" as="alternateBounds" />
          </mxGeometry>
        </mxCell>
        <mxCell id="Rgj9W0QIKtO3NvW4RfYq-21" value="" style="shape=tableRow;horizontal=0;startSize=0;swimlaneHead=0;swimlaneBody=0;fillColor=none;collapsible=0;dropTarget=0;points=[[0,0.5],[1,0.5]];portConstraint=eastwest;top=0;left=0;right=0;bottom=0;" parent="Rgj9W0QIKtO3NvW4RfYq-14" vertex="1">
          <mxGeometry y="90" width="177.83999999999992" height="30" as="geometry" />
        </mxCell>
        <mxCell id="Rgj9W0QIKtO3NvW4RfYq-22" value="" style="shape=partialRectangle;connectable=0;fillColor=none;top=0;left=0;bottom=0;right=0;editable=1;overflow=hidden;whiteSpace=wrap;html=1;" parent="Rgj9W0QIKtO3NvW4RfYq-21" vertex="1">
          <mxGeometry width="30" height="30" as="geometry">
            <mxRectangle width="30" height="30" as="alternateBounds" />
          </mxGeometry>
        </mxCell>
        <mxCell id="Rgj9W0QIKtO3NvW4RfYq-23" value="contatto" style="shape=partialRectangle;connectable=0;fillColor=none;top=0;left=0;bottom=0;right=0;align=left;spacingLeft=6;overflow=hidden;whiteSpace=wrap;html=1;" parent="Rgj9W0QIKtO3NvW4RfYq-21" vertex="1">
          <mxGeometry x="30" width="147.83999999999992" height="30" as="geometry">
            <mxRectangle width="147.83999999999992" height="30" as="alternateBounds" />
          </mxGeometry>
        </mxCell>
        <mxCell id="Rgj9W0QIKtO3NvW4RfYq-27" value="Autore" style="shape=table;startSize=30;container=1;collapsible=1;childLayout=tableLayout;fixedRows=1;rowLines=0;fontStyle=1;align=center;resizeLast=1;html=1;" parent="synUWKf-2iNve79TVzv9-1" vertex="1">
          <mxGeometry x="316.16" y="296.40000000000003" width="177.83999999999992" height="150" as="geometry" />
        </mxCell>
        <mxCell id="Rgj9W0QIKtO3NvW4RfYq-28" value="" style="shape=tableRow;horizontal=0;startSize=0;swimlaneHead=0;swimlaneBody=0;fillColor=none;collapsible=0;dropTarget=0;points=[[0,0.5],[1,0.5]];portConstraint=eastwest;top=0;left=0;right=0;bottom=1;" parent="Rgj9W0QIKtO3NvW4RfYq-27" vertex="1">
          <mxGeometry y="30" width="177.83999999999992" height="30" as="geometry" />
        </mxCell>
        <mxCell id="Rgj9W0QIKtO3NvW4RfYq-29" value="PK" style="shape=partialRectangle;connectable=0;fillColor=none;top=0;left=0;bottom=0;right=0;fontStyle=1;overflow=hidden;whiteSpace=wrap;html=1;" parent="Rgj9W0QIKtO3NvW4RfYq-28" vertex="1">
          <mxGeometry width="30" height="30" as="geometry">
            <mxRectangle width="30" height="30" as="alternateBounds" />
          </mxGeometry>
        </mxCell>
        <mxCell id="Rgj9W0QIKtO3NvW4RfYq-30" value="id" style="shape=partialRectangle;connectable=0;fillColor=none;top=0;left=0;bottom=0;right=0;align=left;spacingLeft=6;fontStyle=5;overflow=hidden;whiteSpace=wrap;html=1;" parent="Rgj9W0QIKtO3NvW4RfYq-28" vertex="1">
          <mxGeometry x="30" width="147.83999999999992" height="30" as="geometry">
            <mxRectangle width="147.83999999999992" height="30" as="alternateBounds" />
          </mxGeometry>
        </mxCell>
        <mxCell id="Rgj9W0QIKtO3NvW4RfYq-31" value="" style="shape=tableRow;horizontal=0;startSize=0;swimlaneHead=0;swimlaneBody=0;fillColor=none;collapsible=0;dropTarget=0;points=[[0,0.5],[1,0.5]];portConstraint=eastwest;top=0;left=0;right=0;bottom=0;" parent="Rgj9W0QIKtO3NvW4RfYq-27" vertex="1">
          <mxGeometry y="60" width="177.83999999999992" height="30" as="geometry" />
        </mxCell>
        <mxCell id="Rgj9W0QIKtO3NvW4RfYq-32" value="" style="shape=partialRectangle;connectable=0;fillColor=none;top=0;left=0;bottom=0;right=0;editable=1;overflow=hidden;whiteSpace=wrap;html=1;" parent="Rgj9W0QIKtO3NvW4RfYq-31" vertex="1">
          <mxGeometry width="30" height="30" as="geometry">
            <mxRectangle width="30" height="30" as="alternateBounds" />
          </mxGeometry>
        </mxCell>
        <mxCell id="Rgj9W0QIKtO3NvW4RfYq-33" value="nome" style="shape=partialRectangle;connectable=0;fillColor=none;top=0;left=0;bottom=0;right=0;align=left;spacingLeft=6;overflow=hidden;whiteSpace=wrap;html=1;" parent="Rgj9W0QIKtO3NvW4RfYq-31" vertex="1">
          <mxGeometry x="30" width="147.83999999999992" height="30" as="geometry">
            <mxRectangle width="147.83999999999992" height="30" as="alternateBounds" />
          </mxGeometry>
        </mxCell>
        <mxCell id="Rgj9W0QIKtO3NvW4RfYq-34" value="" style="shape=tableRow;horizontal=0;startSize=0;swimlaneHead=0;swimlaneBody=0;fillColor=none;collapsible=0;dropTarget=0;points=[[0,0.5],[1,0.5]];portConstraint=eastwest;top=0;left=0;right=0;bottom=0;" parent="Rgj9W0QIKtO3NvW4RfYq-27" vertex="1">
          <mxGeometry y="90" width="177.83999999999992" height="30" as="geometry" />
        </mxCell>
        <mxCell id="Rgj9W0QIKtO3NvW4RfYq-35" value="" style="shape=partialRectangle;connectable=0;fillColor=none;top=0;left=0;bottom=0;right=0;editable=1;overflow=hidden;whiteSpace=wrap;html=1;" parent="Rgj9W0QIKtO3NvW4RfYq-34" vertex="1">
          <mxGeometry width="30" height="30" as="geometry">
            <mxRectangle width="30" height="30" as="alternateBounds" />
          </mxGeometry>
        </mxCell>
        <mxCell id="Rgj9W0QIKtO3NvW4RfYq-36" value="cognome" style="shape=partialRectangle;connectable=0;fillColor=none;top=0;left=0;bottom=0;right=0;align=left;spacingLeft=6;overflow=hidden;whiteSpace=wrap;html=1;" parent="Rgj9W0QIKtO3NvW4RfYq-34" vertex="1">
          <mxGeometry x="30" width="147.83999999999992" height="30" as="geometry">
            <mxRectangle width="147.83999999999992" height="30" as="alternateBounds" />
          </mxGeometry>
        </mxCell>
        <mxCell id="Rgj9W0QIKtO3NvW4RfYq-37" style="shape=tableRow;horizontal=0;startSize=0;swimlaneHead=0;swimlaneBody=0;fillColor=none;collapsible=0;dropTarget=0;points=[[0,0.5],[1,0.5]];portConstraint=eastwest;top=0;left=0;right=0;bottom=0;" parent="Rgj9W0QIKtO3NvW4RfYq-27" vertex="1">
          <mxGeometry y="120" width="177.83999999999992" height="30" as="geometry" />
        </mxCell>
        <mxCell id="Rgj9W0QIKtO3NvW4RfYq-38" style="shape=partialRectangle;connectable=0;fillColor=none;top=0;left=0;bottom=0;right=0;editable=1;overflow=hidden;whiteSpace=wrap;html=1;" parent="Rgj9W0QIKtO3NvW4RfYq-37" vertex="1">
          <mxGeometry width="30" height="30" as="geometry">
            <mxRectangle width="30" height="30" as="alternateBounds" />
          </mxGeometry>
        </mxCell>
        <mxCell id="Rgj9W0QIKtO3NvW4RfYq-39" value="nazionalita" style="shape=partialRectangle;connectable=0;fillColor=none;top=0;left=0;bottom=0;right=0;align=left;spacingLeft=6;overflow=hidden;whiteSpace=wrap;html=1;" parent="Rgj9W0QIKtO3NvW4RfYq-37" vertex="1">
          <mxGeometry x="30" width="147.83999999999992" height="30" as="geometry">
            <mxRectangle width="147.83999999999992" height="30" as="alternateBounds" />
          </mxGeometry>
        </mxCell>
        <mxCell id="Rgj9W0QIKtO3NvW4RfYq-43" value="" style="edgeStyle=entityRelationEdgeStyle;fontSize=12;html=1;endArrow=ERoneToMany;rounded=0;exitX=0;exitY=0.233;exitDx=0;exitDy=0;exitPerimeter=0;startArrow=ERmandOne;startFill=0;" parent="synUWKf-2iNve79TVzv9-1" source="Rgj9W0QIKtO3NvW4RfYq-15" target="Rgj9W0QIKtO3NvW4RfYq-40" edge="1">
          <mxGeometry width="100" height="100" relative="1" as="geometry">
            <mxPoint x="167.95999999999998" y="247.00000000000003" as="sourcePoint" />
            <mxPoint x="266.7599999999999" y="148.20000000000002" as="targetPoint" />
          </mxGeometry>
        </mxCell>
        <mxCell id="Rgj9W0QIKtO3NvW4RfYq-44" value="Autore_Libro" style="shape=table;startSize=30;container=1;collapsible=1;childLayout=tableLayout;fixedRows=1;rowLines=0;fontStyle=1;align=center;resizeLast=1;html=1;" parent="synUWKf-2iNve79TVzv9-1" vertex="1">
          <mxGeometry y="266.76000000000005" width="177.83999999999992" height="90" as="geometry" />
        </mxCell>
        <mxCell id="Rgj9W0QIKtO3NvW4RfYq-48" value="" style="shape=tableRow;horizontal=0;startSize=0;swimlaneHead=0;swimlaneBody=0;fillColor=none;collapsible=0;dropTarget=0;points=[[0,0.5],[1,0.5]];portConstraint=eastwest;top=0;left=0;right=0;bottom=0;" parent="Rgj9W0QIKtO3NvW4RfYq-44" vertex="1">
          <mxGeometry y="30" width="177.83999999999992" height="30" as="geometry" />
        </mxCell>
        <mxCell id="Rgj9W0QIKtO3NvW4RfYq-49" value="PK, FK" style="shape=partialRectangle;connectable=0;fillColor=none;top=0;left=0;bottom=0;right=0;editable=1;overflow=hidden;whiteSpace=wrap;html=1;" parent="Rgj9W0QIKtO3NvW4RfYq-48" vertex="1">
          <mxGeometry width="40" height="30" as="geometry">
            <mxRectangle width="40" height="30" as="alternateBounds" />
          </mxGeometry>
        </mxCell>
        <mxCell id="Rgj9W0QIKtO3NvW4RfYq-50" value="libro_id" style="shape=partialRectangle;connectable=0;fillColor=none;top=0;left=0;bottom=0;right=0;align=left;spacingLeft=6;overflow=hidden;whiteSpace=wrap;html=1;" parent="Rgj9W0QIKtO3NvW4RfYq-48" vertex="1">
          <mxGeometry x="40" width="137.83999999999992" height="30" as="geometry">
            <mxRectangle width="137.83999999999992" height="30" as="alternateBounds" />
          </mxGeometry>
        </mxCell>
        <mxCell id="Rgj9W0QIKtO3NvW4RfYq-51" value="" style="shape=tableRow;horizontal=0;startSize=0;swimlaneHead=0;swimlaneBody=0;fillColor=none;collapsible=0;dropTarget=0;points=[[0,0.5],[1,0.5]];portConstraint=eastwest;top=0;left=0;right=0;bottom=0;" parent="Rgj9W0QIKtO3NvW4RfYq-44" vertex="1">
          <mxGeometry y="60" width="177.83999999999992" height="30" as="geometry" />
        </mxCell>
        <mxCell id="Rgj9W0QIKtO3NvW4RfYq-52" value="PK, FK" style="shape=partialRectangle;connectable=0;fillColor=none;top=0;left=0;bottom=0;right=0;editable=1;overflow=hidden;whiteSpace=wrap;html=1;" parent="Rgj9W0QIKtO3NvW4RfYq-51" vertex="1">
          <mxGeometry width="40" height="30" as="geometry">
            <mxRectangle width="40" height="30" as="alternateBounds" />
          </mxGeometry>
        </mxCell>
        <mxCell id="Rgj9W0QIKtO3NvW4RfYq-53" value="autore_id" style="shape=partialRectangle;connectable=0;fillColor=none;top=0;left=0;bottom=0;right=0;align=left;spacingLeft=6;overflow=hidden;whiteSpace=wrap;html=1;" parent="Rgj9W0QIKtO3NvW4RfYq-51" vertex="1">
          <mxGeometry x="40" width="137.83999999999992" height="30" as="geometry">
            <mxRectangle width="137.83999999999992" height="30" as="alternateBounds" />
          </mxGeometry>
        </mxCell>
        <mxCell id="Rgj9W0QIKtO3NvW4RfYq-59" style="edgeStyle=orthogonalEdgeStyle;rounded=0;orthogonalLoop=1;jettySize=auto;html=1;exitX=1;exitY=0.5;exitDx=0;exitDy=0;" parent="synUWKf-2iNve79TVzv9-1" source="Rgj9W0QIKtO3NvW4RfYq-51" target="Rgj9W0QIKtO3NvW4RfYq-28" edge="1">
          <mxGeometry relative="1" as="geometry" />
        </mxCell>
        <mxCell id="Rgj9W0QIKtO3NvW4RfYq-60" style="edgeStyle=orthogonalEdgeStyle;rounded=0;orthogonalLoop=1;jettySize=auto;html=1;exitX=0;exitY=0.5;exitDx=0;exitDy=0;entryX=0;entryY=0.333;entryDx=0;entryDy=0;entryPerimeter=0;" parent="synUWKf-2iNve79TVzv9-1" source="Rgj9W0QIKtO3NvW4RfYq-48" target="Rgj9W0QIKtO3NvW4RfYq-2" edge="1">
          <mxGeometry relative="1" as="geometry" />
        </mxCell>
        <mxCell id="synUWKf-2iNve79TVzv9-19" style="edgeStyle=orthogonalEdgeStyle;rounded=0;orthogonalLoop=1;jettySize=auto;html=1;exitX=1;exitY=0;exitDx=0;exitDy=15;exitPerimeter=0;" edge="1" parent="1" source="synUWKf-2iNve79TVzv9-2" target="synUWKf-2iNve79TVzv9-8">
          <mxGeometry relative="1" as="geometry">
            <Array as="points">
              <mxPoint x="390" y="80" />
              <mxPoint x="540" y="80" />
            </Array>
          </mxGeometry>
        </mxCell>
        <mxCell id="synUWKf-2iNve79TVzv9-2" value="DATABA" style="shape=cylinder3;whiteSpace=wrap;html=1;boundedLbl=1;backgroundOutline=1;size=15;" vertex="1" parent="1">
          <mxGeometry x="100" y="120" width="290" height="340" as="geometry" />
        </mxCell>
        <mxCell id="synUWKf-2iNve79TVzv9-3" value="" style="image;aspect=fixed;perimeter=ellipsePerimeter;html=1;align=center;shadow=0;dashed=0;spacingTop=3;image=img/lib/active_directory/generic_server.svg;" vertex="1" parent="1">
          <mxGeometry x="125" y="-570" width="235.2" height="420" as="geometry" />
        </mxCell>
        <mxCell id="synUWKf-2iNve79TVzv9-5" value="localhost" style="text;strokeColor=none;fillColor=none;html=1;fontSize=38;fontStyle=1;verticalAlign=middle;align=center;" vertex="1" parent="1">
          <mxGeometry x="130" y="-120" width="220" height="40" as="geometry" />
        </mxCell>
        <mxCell id="synUWKf-2iNve79TVzv9-7" value="127.0.0.1" style="text;strokeColor=none;fillColor=none;html=1;fontSize=38;fontStyle=1;verticalAlign=middle;align=center;" vertex="1" parent="1">
          <mxGeometry x="130" y="-60" width="220" height="40" as="geometry" />
        </mxCell>
        <mxCell id="synUWKf-2iNve79TVzv9-18" style="edgeStyle=orthogonalEdgeStyle;rounded=0;orthogonalLoop=1;jettySize=auto;html=1;exitX=0.25;exitY=1;exitDx=0;exitDy=0;" edge="1" parent="1" source="synUWKf-2iNve79TVzv9-8" target="synUWKf-2iNve79TVzv9-2">
          <mxGeometry relative="1" as="geometry">
            <Array as="points">
              <mxPoint x="450" y="40" />
              <mxPoint x="245" y="40" />
            </Array>
          </mxGeometry>
        </mxCell>
        <mxCell id="synUWKf-2iNve79TVzv9-8" value="" style="shape=image;verticalLabelPosition=bottom;labelBackgroundColor=default;verticalAlign=top;aspect=fixed;imageAspect=0;image=https://blog.manageengine.it/wp-content/uploads/2023/09/03_10_AppMan_2.jpg;" vertex="1" parent="1">
          <mxGeometry x="360" y="-450" width="360" height="216" as="geometry" />
        </mxCell>
        <mxCell id="synUWKf-2iNve79TVzv9-9" value="8080" style="text;strokeColor=none;fillColor=none;html=1;fontSize=38;fontStyle=1;verticalAlign=middle;align=center;" vertex="1" parent="1">
          <mxGeometry x="430" y="-150" width="220" height="40" as="geometry" />
        </mxCell>
        <mxCell id="synUWKf-2iNve79TVzv9-10" value="3306" style="text;strokeColor=none;fillColor=none;html=1;fontSize=38;fontStyle=1;verticalAlign=middle;align=center;" vertex="1" parent="1">
          <mxGeometry x="125" y="40" width="220" height="40" as="geometry" />
        </mxCell>
        <mxCell id="synUWKf-2iNve79TVzv9-15" style="edgeStyle=orthogonalEdgeStyle;rounded=0;orthogonalLoop=1;jettySize=auto;html=1;entryX=0.549;entryY=0.016;entryDx=0;entryDy=0;entryPerimeter=0;" edge="1" parent="1" source="synUWKf-2iNve79TVzv9-11" target="synUWKf-2iNve79TVzv9-8">
          <mxGeometry relative="1" as="geometry">
            <Array as="points">
              <mxPoint x="158" y="-710" />
              <mxPoint x="558" y="-710" />
            </Array>
          </mxGeometry>
        </mxCell>
        <mxCell id="synUWKf-2iNve79TVzv9-16" value="request" style="edgeLabel;html=1;align=center;verticalAlign=middle;resizable=0;points=[];" vertex="1" connectable="0" parent="synUWKf-2iNve79TVzv9-15">
          <mxGeometry x="0.2321" y="-1" relative="1" as="geometry">
            <mxPoint x="1" as="offset" />
          </mxGeometry>
        </mxCell>
        <mxCell id="synUWKf-2iNve79TVzv9-11" value="" style="image;aspect=fixed;perimeter=ellipsePerimeter;html=1;align=center;shadow=0;dashed=0;spacingTop=3;image=img/lib/active_directory/laptop_client.svg;" vertex="1" parent="1">
          <mxGeometry x="60" y="-1620" width="195" height="216.67" as="geometry" />
        </mxCell>
        <mxCell id="synUWKf-2iNve79TVzv9-12" value="" style="sketch=0;outlineConnect=0;fontColor=#232F3E;gradientColor=none;fillColor=#232F3D;strokeColor=none;dashed=0;verticalLabelPosition=bottom;verticalAlign=top;align=center;html=1;fontSize=12;fontStyle=0;aspect=fixed;pointerEvents=1;shape=mxgraph.aws4.mobile_client;" vertex="1" parent="1">
          <mxGeometry x="370" y="-1576.99" width="68.68" height="130.66" as="geometry" />
        </mxCell>
        <mxCell id="synUWKf-2iNve79TVzv9-13" value="" style="sketch=0;outlineConnect=0;fontColor=#232F3E;gradientColor=none;fillColor=#232F3D;strokeColor=none;dashed=0;verticalLabelPosition=bottom;verticalAlign=top;align=center;html=1;fontSize=12;fontStyle=0;aspect=fixed;pointerEvents=1;shape=mxgraph.aws4.client;" vertex="1" parent="1">
          <mxGeometry x="550" y="-1570" width="133.42" height="130" as="geometry" />
        </mxCell>
        <mxCell id="synUWKf-2iNve79TVzv9-14" value="" style="image;aspect=fixed;perimeter=ellipsePerimeter;html=1;align=center;shadow=0;dashed=0;spacingTop=3;image=img/lib/active_directory/mac_client.svg;" vertex="1" parent="1">
          <mxGeometry x="820" y="-1600" width="197" height="209.57" as="geometry" />
        </mxCell>
        <mxCell id="synUWKf-2iNve79TVzv9-17" value="" style="endArrow=none;dashed=1;html=1;dashPattern=1 3;strokeWidth=2;rounded=0;" edge="1" parent="1">
          <mxGeometry width="50" height="50" relative="1" as="geometry">
            <mxPoint x="-10" y="-80" as="sourcePoint" />
            <mxPoint x="1280" y="-70" as="targetPoint" />
          </mxGeometry>
        </mxCell>
        <mxCell id="synUWKf-2iNve79TVzv9-20" value="" style="dashed=0;outlineConnect=0;html=1;align=center;labelPosition=center;verticalLabelPosition=bottom;verticalAlign=top;shape=mxgraph.weblogos.java" vertex="1" parent="1">
          <mxGeometry x="909" y="-827" width="260" height="365" as="geometry" />
        </mxCell>
        <mxCell id="synUWKf-2iNve79TVzv9-21" value="Libro" style="swimlane;fontStyle=1;align=center;verticalAlign=top;childLayout=stackLayout;horizontal=1;startSize=26;horizontalStack=0;resizeParent=1;resizeParentMax=0;resizeLast=0;collapsible=1;marginBottom=0;whiteSpace=wrap;html=1;" vertex="1" parent="1">
          <mxGeometry x="850" y="-370" width="160" height="190" as="geometry" />
        </mxCell>
        <mxCell id="synUWKf-2iNve79TVzv9-22" value="+ titolo: String" style="text;strokeColor=none;fillColor=none;align=left;verticalAlign=top;spacingLeft=4;spacingRight=4;overflow=hidden;rotatable=0;points=[[0,0.5],[1,0.5]];portConstraint=eastwest;whiteSpace=wrap;html=1;" vertex="1" parent="synUWKf-2iNve79TVzv9-21">
          <mxGeometry y="26" width="160" height="26" as="geometry" />
        </mxCell>
        <mxCell id="synUWKf-2iNve79TVzv9-30" value="+ pagine: int" style="text;strokeColor=none;fillColor=none;align=left;verticalAlign=top;spacingLeft=4;spacingRight=4;overflow=hidden;rotatable=0;points=[[0,0.5],[1,0.5]];portConstraint=eastwest;whiteSpace=wrap;html=1;" vertex="1" parent="synUWKf-2iNve79TVzv9-21">
          <mxGeometry y="52" width="160" height="26" as="geometry" />
        </mxCell>
        <mxCell id="synUWKf-2iNve79TVzv9-29" value="+ prezzo: double" style="text;strokeColor=none;fillColor=none;align=left;verticalAlign=top;spacingLeft=4;spacingRight=4;overflow=hidden;rotatable=0;points=[[0,0.5],[1,0.5]];portConstraint=eastwest;whiteSpace=wrap;html=1;" vertex="1" parent="synUWKf-2iNve79TVzv9-21">
          <mxGeometry y="78" width="160" height="26" as="geometry" />
        </mxCell>
        <mxCell id="synUWKf-2iNve79TVzv9-28" value="+ editore: Editore" style="text;strokeColor=none;fillColor=none;align=left;verticalAlign=top;spacingLeft=4;spacingRight=4;overflow=hidden;rotatable=0;points=[[0,0.5],[1,0.5]];portConstraint=eastwest;whiteSpace=wrap;html=1;" vertex="1" parent="synUWKf-2iNve79TVzv9-21">
          <mxGeometry y="104" width="160" height="26" as="geometry" />
        </mxCell>
        <mxCell id="synUWKf-2iNve79TVzv9-45" value="+ autori: List&amp;lt;Autore&amp;gt;" style="text;strokeColor=none;fillColor=none;align=left;verticalAlign=top;spacingLeft=4;spacingRight=4;overflow=hidden;rotatable=0;points=[[0,0.5],[1,0.5]];portConstraint=eastwest;whiteSpace=wrap;html=1;" vertex="1" parent="synUWKf-2iNve79TVzv9-21">
          <mxGeometry y="130" width="160" height="26" as="geometry" />
        </mxCell>
        <mxCell id="synUWKf-2iNve79TVzv9-23" value="" style="line;strokeWidth=1;fillColor=none;align=left;verticalAlign=middle;spacingTop=-1;spacingLeft=3;spacingRight=3;rotatable=0;labelPosition=right;points=[];portConstraint=eastwest;strokeColor=inherit;" vertex="1" parent="synUWKf-2iNve79TVzv9-21">
          <mxGeometry y="156" width="160" height="8" as="geometry" />
        </mxCell>
        <mxCell id="synUWKf-2iNve79TVzv9-24" value="+ method(type): type" style="text;strokeColor=none;fillColor=none;align=left;verticalAlign=top;spacingLeft=4;spacingRight=4;overflow=hidden;rotatable=0;points=[[0,0.5],[1,0.5]];portConstraint=eastwest;whiteSpace=wrap;html=1;" vertex="1" parent="synUWKf-2iNve79TVzv9-21">
          <mxGeometry y="164" width="160" height="26" as="geometry" />
        </mxCell>
        <mxCell id="synUWKf-2iNve79TVzv9-31" value="Editore" style="swimlane;fontStyle=1;align=center;verticalAlign=top;childLayout=stackLayout;horizontal=1;startSize=26;horizontalStack=0;resizeParent=1;resizeParentMax=0;resizeLast=0;collapsible=1;marginBottom=0;whiteSpace=wrap;html=1;" vertex="1" parent="1">
          <mxGeometry x="1090" y="-370" width="270" height="164" as="geometry" />
        </mxCell>
        <mxCell id="synUWKf-2iNve79TVzv9-32" value="+ nome: String" style="text;strokeColor=none;fillColor=none;align=left;verticalAlign=top;spacingLeft=4;spacingRight=4;overflow=hidden;rotatable=0;points=[[0,0.5],[1,0.5]];portConstraint=eastwest;whiteSpace=wrap;html=1;" vertex="1" parent="synUWKf-2iNve79TVzv9-31">
          <mxGeometry y="26" width="270" height="26" as="geometry" />
        </mxCell>
        <mxCell id="synUWKf-2iNve79TVzv9-33" value="+ contatto: String" style="text;strokeColor=none;fillColor=none;align=left;verticalAlign=top;spacingLeft=4;spacingRight=4;overflow=hidden;rotatable=0;points=[[0,0.5],[1,0.5]];portConstraint=eastwest;whiteSpace=wrap;html=1;" vertex="1" parent="synUWKf-2iNve79TVzv9-31">
          <mxGeometry y="52" width="270" height="26" as="geometry" />
        </mxCell>
        <mxCell id="synUWKf-2iNve79TVzv9-47" value="+ libri: List&amp;lt;Libro&amp;gt;" style="text;strokeColor=none;fillColor=none;align=left;verticalAlign=top;spacingLeft=4;spacingRight=4;overflow=hidden;rotatable=0;points=[[0,0.5],[1,0.5]];portConstraint=eastwest;whiteSpace=wrap;html=1;" vertex="1" parent="synUWKf-2iNve79TVzv9-31">
          <mxGeometry y="78" width="270" height="26" as="geometry" />
        </mxCell>
        <mxCell id="synUWKf-2iNve79TVzv9-36" value="" style="line;strokeWidth=1;fillColor=none;align=left;verticalAlign=middle;spacingTop=-1;spacingLeft=3;spacingRight=3;rotatable=0;labelPosition=right;points=[];portConstraint=eastwest;strokeColor=inherit;" vertex="1" parent="synUWKf-2iNve79TVzv9-31">
          <mxGeometry y="104" width="270" height="8" as="geometry" />
        </mxCell>
        <mxCell id="synUWKf-2iNve79TVzv9-37" value="+ getLibri(): List&amp;lt;Libro&amp;gt;" style="text;strokeColor=none;fillColor=none;align=left;verticalAlign=top;spacingLeft=4;spacingRight=4;overflow=hidden;rotatable=0;points=[[0,0.5],[1,0.5]];portConstraint=eastwest;whiteSpace=wrap;html=1;" vertex="1" parent="synUWKf-2iNve79TVzv9-31">
          <mxGeometry y="112" width="270" height="26" as="geometry" />
        </mxCell>
        <mxCell id="synUWKf-2iNve79TVzv9-48" value="+ getLibriByAutore(Autore): List&amp;lt;Libro&amp;gt;" style="text;strokeColor=none;fillColor=none;align=left;verticalAlign=top;spacingLeft=4;spacingRight=4;overflow=hidden;rotatable=0;points=[[0,0.5],[1,0.5]];portConstraint=eastwest;whiteSpace=wrap;html=1;" vertex="1" parent="synUWKf-2iNve79TVzv9-31">
          <mxGeometry y="138" width="270" height="26" as="geometry" />
        </mxCell>
        <mxCell id="synUWKf-2iNve79TVzv9-38" value="Autore" style="swimlane;fontStyle=1;align=center;verticalAlign=top;childLayout=stackLayout;horizontal=1;startSize=26;horizontalStack=0;resizeParent=1;resizeParentMax=0;resizeLast=0;collapsible=1;marginBottom=0;whiteSpace=wrap;html=1;" vertex="1" parent="1">
          <mxGeometry x="1080" y="-140" width="160" height="164" as="geometry" />
        </mxCell>
        <mxCell id="synUWKf-2iNve79TVzv9-39" value="+ nome: String" style="text;strokeColor=none;fillColor=none;align=left;verticalAlign=top;spacingLeft=4;spacingRight=4;overflow=hidden;rotatable=0;points=[[0,0.5],[1,0.5]];portConstraint=eastwest;whiteSpace=wrap;html=1;" vertex="1" parent="synUWKf-2iNve79TVzv9-38">
          <mxGeometry y="26" width="160" height="26" as="geometry" />
        </mxCell>
        <mxCell id="synUWKf-2iNve79TVzv9-40" value="+ cognome: String" style="text;strokeColor=none;fillColor=none;align=left;verticalAlign=top;spacingLeft=4;spacingRight=4;overflow=hidden;rotatable=0;points=[[0,0.5],[1,0.5]];portConstraint=eastwest;whiteSpace=wrap;html=1;" vertex="1" parent="synUWKf-2iNve79TVzv9-38">
          <mxGeometry y="52" width="160" height="26" as="geometry" />
        </mxCell>
        <mxCell id="synUWKf-2iNve79TVzv9-43" value="+ nazionalita: String" style="text;strokeColor=none;fillColor=none;align=left;verticalAlign=top;spacingLeft=4;spacingRight=4;overflow=hidden;rotatable=0;points=[[0,0.5],[1,0.5]];portConstraint=eastwest;whiteSpace=wrap;html=1;" vertex="1" parent="synUWKf-2iNve79TVzv9-38">
          <mxGeometry y="78" width="160" height="26" as="geometry" />
        </mxCell>
        <mxCell id="synUWKf-2iNve79TVzv9-44" value="+ libri: List&amp;lt;Libro&amp;gt;" style="text;strokeColor=none;fillColor=none;align=left;verticalAlign=top;spacingLeft=4;spacingRight=4;overflow=hidden;rotatable=0;points=[[0,0.5],[1,0.5]];portConstraint=eastwest;whiteSpace=wrap;html=1;" vertex="1" parent="synUWKf-2iNve79TVzv9-38">
          <mxGeometry y="104" width="160" height="26" as="geometry" />
        </mxCell>
        <mxCell id="synUWKf-2iNve79TVzv9-41" value="" style="line;strokeWidth=1;fillColor=none;align=left;verticalAlign=middle;spacingTop=-1;spacingLeft=3;spacingRight=3;rotatable=0;labelPosition=right;points=[];portConstraint=eastwest;strokeColor=inherit;" vertex="1" parent="synUWKf-2iNve79TVzv9-38">
          <mxGeometry y="130" width="160" height="8" as="geometry" />
        </mxCell>
        <mxCell id="synUWKf-2iNve79TVzv9-42" value="+ method(type): type" style="text;strokeColor=none;fillColor=none;align=left;verticalAlign=top;spacingLeft=4;spacingRight=4;overflow=hidden;rotatable=0;points=[[0,0.5],[1,0.5]];portConstraint=eastwest;whiteSpace=wrap;html=1;" vertex="1" parent="synUWKf-2iNve79TVzv9-38">
          <mxGeometry y="138" width="160" height="26" as="geometry" />
        </mxCell>
      </root>
    </mxGraphModel>
  </diagram>
</mxfile>
